<?xml version="1.0" standalone="no"?>
<!DOCTYPE svg PUBLIC "-//W3C//DTD SVG 20010904//EN"
 "http://www.w3.org/TR/2001/REC-SVG-20010904/DTD/svg10.dtd">
<svg version="1.0" xmlns="http://www.w3.org/2000/svg"
 width="720.000000pt" height="480.000000pt" viewBox="0 0 720.000000 480.000000"
 preserveAspectRatio="xMidYMid meet">

<g transform="translate(0.000000,480.000000) scale(0.100000,-0.100000)"
fill="#000000" stroke="none">
<path d="M3802 4389 c-124 -26 -237 -68 -336 -126 -68 -40 -420 -263 -721
-457 -44 -29 -122 -79 -174 -112 -214 -136 -322 -232 -415 -373 -144 -216
-208 -499 -171 -753 15 -109 73 -302 101 -343 20 -28 18 -36 -25 -112 -136
-241 -171 -584 -86 -863 108 -357 404 -661 773 -794 242 -86 537 -89 788 -7
113 37 180 73 429 231 110 70 301 192 425 270 124 79 236 151 250 160 14 9 64
43 113 75 209 140 369 364 433 610 32 120 44 349 25 461 -15 87 -64 245 -94
304 l-23 44 52 101 c88 169 124 319 124 518 0 236 -65 441 -203 647 -62 91
-230 262 -314 318 -152 103 -344 180 -513 208 -122 20 -324 17 -438 -7z m458
-452 c139 -46 250 -110 327 -189 158 -163 233 -355 218 -558 -6 -80 -39 -220
-52 -220 -3 0 -33 20 -67 44 -84 60 -195 118 -297 156 l-87 33 -4 61 c-7 105
-81 185 -188 201 -63 9 -119 -14 -265 -111 -66 -43 -124 -81 -130 -83 -5 -2
-86 -54 -180 -114 -93 -61 -252 -161 -352 -224 -100 -62 -191 -127 -203 -142
-11 -16 -25 -51 -31 -78 -22 -96 40 -204 138 -237 56 -19 85 -20 138 -3 44 13
63 24 338 201 199 128 270 151 457 150 119 -1 145 -4 219 -28 234 -77 419
-262 494 -494 17 -54 21 -91 21 -197 1 -170 -25 -258 -113 -386 -56 -83 -111
-127 -346 -277 -27 -18 -138 -88 -245 -156 -195 -125 -490 -312 -521 -331
-127 -78 -215 -106 -360 -112 -133 -6 -233 11 -335 57 -148 67 -279 189 -366
340 -84 146 -101 399 -39 562 l10 27 83 -55 c97 -64 183 -107 288 -144 l75
-26 7 -63 c13 -121 104 -210 214 -211 75 0 59 -9 521 286 111 71 275 176 365
233 177 113 219 147 243 197 45 96 -12 224 -120 270 -79 33 -193 9 -262 -56
-12 -11 -25 -20 -28 -20 -6 0 -26 -12 -185 -115 -183 -119 -280 -150 -470
-150 -103 0 -138 4 -200 24 -344 107 -571 434 -530 763 18 145 49 224 131 334
67 90 111 123 479 354 91 57 201 127 245 155 151 98 366 235 369 235 2 0 30
16 61 35 54 32 120 57 205 76 54 12 279 3 330 -14z"/>
</g>
</svg>
